# xmcd
#
# Track frame offsets: 
#        182
#        13490
#        25935
#        38232
#        50017
#        61175
#        72145
#        81665
#        94777
#        106595
#        118067
#        129205
#        139475
#        151182
#        162645
#        173585
#        183620
#        192932
#        204407
#        215745
#
# Disc length: 3022 seconds
#
# Revision: 7
# Processed by: cddbd v1.5.2PL0 Copyright (c) Steve Scherf et al.
# Submitted via: ExactAudioCopyFreeDBPlugin 1.0
#
DISCID=230bcc14
DTITLE=The Drifters - Greatest Hits and More, 1953-1965
DYEAR=1988
DGENRE=Rhythm and Blues
TTITLE0=Honey Bee
TTITLE1=No Sweet Lovin'
TTITLE2=Adorable
TTITLE3=Your Promise to Be Mine
TTITLE4=Steamboat
TTITLE5=Ruby Baby
TTITLE6=Drifting Away from You
TTITLE7=I Should Have Done Right
TTITLE8=Soldier of Fortune
TTITLE9=Honky Tonky
TTITLE10=Sadie My Lady
TTITLE11=I Gotta Get Myself a Woman
TTITLE12=Fools Fall in Love
TTITLE13=It Was a Tear
TTITLE14=Yodee Yakee
TTITLE15=I Know
TTITLE16=Hypnotized
TTITLE17=Souvenirs
TTITLE18=Drip Drop
TTITLE19=Suddenly There's a Valley
EXTD=
EXTT0=
EXTT1=
EXTT2=
EXTT3=
EXTT4=
EXTT5=
EXTT6=
EXTT7=
EXTT8=
EXTT9=
EXTT10=
EXTT11=
EXTT12=
EXTT13=
EXTT14=
EXTT15=
EXTT16=
EXTT17=
EXTT18=
EXTT19=
PLAYORDER=
